<svg width="18" height="18" viewBox="0 0 18 18" fill="none" xmlns="http://www.w3.org/2000/svg">
<path d="M15.9258 0H2.07471C0.930664 0 0 0.930664 0 2.07471V15.9258C0 17.0693 0.930664 18 2.07471 18H15.9258C17.0693 18 18 17.0693 18 15.9258V2.07471C18 0.930664 17.0693 0 15.9258 0ZM17 15.9258C17 16.5181 16.5181 17 15.9258 17H2.07471C1.48193 17 1 16.5181 1 15.9258V2.07471C1 1.48193 1.48193 1 2.07471 1H15.9258C16.5181 1 17 1.48193 17 2.07471V15.9258ZM5.89111 6.8125L4.14062 9L5.89111 11.1875C6.06348 11.4033 6.02832 11.7178 5.81299 11.8906C5.7207 11.9644 5.61035 12 5.50098 12C5.354 12 5.20898 11.9355 5.10986 11.8125L3.10986 9.3125C2.96387 9.12988 2.96387 8.87012 3.10986 8.6875L5.10986 6.1875C5.28369 5.97363 5.59766 5.93701 5.81299 6.10938C6.02832 6.28223 6.06348 6.59668 5.89111 6.8125ZM14.8906 8.6875C15.0366 8.87012 15.0366 9.12988 14.8906 9.3125L12.8906 11.8125C12.7915 11.9355 12.6465 12 12.4995 12C12.3901 12 12.2798 11.9644 12.1875 11.8906C11.9722 11.7178 11.937 11.4033 12.1094 11.1875L13.8599 9L12.1094 6.8125C11.937 6.59668 11.9722 6.28223 12.1875 6.10938C12.4043 5.93652 12.7178 5.97314 12.8906 6.1875L14.8906 8.6875ZM10.9595 5.69678L7.95947 12.6968C7.87842 12.8867 7.69385 13 7.5 13C7.43408 13 7.36719 12.9873 7.30322 12.9595C7.04932 12.8506 6.93164 12.5566 7.04053 12.3032L10.0405 5.30322C10.1494 5.04834 10.4453 4.93115 10.6968 5.04053C10.9507 5.14941 11.0684 5.44336 10.9595 5.69678Z" fill="white"/>
</svg>
