<svg width="18" height="18" viewBox="0 0 18 18" fill="none" xmlns="http://www.w3.org/2000/svg">
<path d="M6.49988 0H1.5C0.67157 0 0 0.67157 0 1.5V9.5C0 10.3284 0.67157 11 1.5 11H6.49988C7.32831 11 7.99988 10.3284 7.99988 9.5V1.5C7.99988 0.67157 7.32831 0 6.49988 0ZM6.99988 9.5C6.99988 9.7757 6.77557 10 6.49988 10H1.5C1.2243 10 1 9.7757 1 9.5V1.5C1 1.2243 1.2243 1 1.5 1H6.49988C6.77557 1 6.99988 1.2243 6.99988 1.5V9.5ZM16.4999 10H11.5C10.6716 10 10 10.6716 10 11.5V16.5C10 17.3284 10.6716 18 11.5 18H16.4999C17.3283 18 17.9999 17.3284 17.9999 16.5V11.5C17.9999 10.6716 17.3283 10 16.4999 10ZM16.9999 16.5C16.9999 16.7757 16.7756 17 16.4999 17H11.5C11.2243 17 11 16.7757 11 16.5V11.5C11 11.2243 11.2243 11 11.5 11H16.4999C16.7756 11 16.9999 11.2243 16.9999 11.5V16.5ZM6.49988 13.0001H1.5C0.67157 13.0001 0 13.6717 0 14.5001V16.5C0 17.3284 0.67157 18 1.5 18H6.49988C7.32831 18 7.99988 17.3284 7.99988 16.5V14.5001C7.99988 13.6717 7.32831 13.0001 6.49988 13.0001ZM6.99988 16.5C6.99988 16.7757 6.77557 17 6.49988 17H1.5C1.2243 17 1 16.7757 1 16.5V14.5001C1 14.2244 1.2243 14.0001 1.5 14.0001H6.49988C6.77557 14.0001 6.99988 14.2244 6.99988 14.5001V16.5ZM13.9999 0L9.99988 2.25V6.75L13.9999 9L17.9999 6.75V2.25L13.9999 0ZM16.9999 6.16516L13.9999 7.85266L10.9999 6.16516V2.8349L13.9999 1.1474L16.9999 2.8349V6.16516ZM13.9999 3.5C14.5522 3.5 14.9999 3.94775 14.9999 4.5C14.9999 5.05231 14.5522 5.5 13.9999 5.5C13.4476 5.5 12.9999 5.05231 12.9999 4.5C12.9999 3.94775 13.4476 3.5 13.9999 3.5Z" fill="white"/>
</svg>
