<svg width="19" height="19" viewBox="0 0 19 19" fill="none" xmlns="http://www.w3.org/2000/svg">
<path d="M16.9526 0H6.50098C6.50079 0 6.50067 0.0001221 6.50049 0.0001221C6.50031 0.0001221 6.50018 0 6.5 0C6.47333 0 6.45044 0.0111084 6.42493 0.0151367C6.38568 0.0213623 6.34534 0.0233765 6.30896 0.0385132C6.24634 0.0643921 6.19055 0.102539 6.14386 0.150085L0.150085 6.14386C0.102539 6.19055 0.0643921 6.24634 0.0385132 6.30896C0.0233765 6.34534 0.0213623 6.38568 0.0151367 6.42493C0.0111084 6.45044 0 6.47333 0 6.5C0 6.50018 0.0001221 6.50031 0.0001221 6.50049C0.0001221 6.50067 0 6.50079 0 6.50098V16.9526C0 18.0815 0.918457 19 2.04736 19H16.9526C18.0815 19 19 18.0815 19 16.9526V2.04785C19 0.918457 18.0815 0 16.9526 0ZM6 1.70801V6H1.70801L6 1.70801ZM18 16.9526C18 17.5303 17.5303 18 16.9526 18H2.04736C1.46973 18 1 17.5303 1 16.9526V7H6.5C6.77637 7 7 6.77637 7 6.5V1H16.9526C17.5303 1 18 1.47021 18 2.04785V16.9526Z" fill="white"/>
</svg>
