<svg width="18" height="18" viewBox="0 0 18 18" fill="none" xmlns="http://www.w3.org/2000/svg">
<path d="M16.2739 12.2934C16.7311 11.2871 17 10.1773 17 9C17 7.82269 16.7311 6.71289 16.2739 5.7066C17.2913 5.22656 18 4.19946 18 3C18 1.3432 16.6569 0 15 0C13.8005 0 12.7736 0.708801 12.2935 1.72607C11.2872 1.26886 10.1773 1 9 1C7.82269 1 6.71277 1.26886 5.70654 1.72607C5.22644 0.708801 4.19946 0 3 0C1.34314 0 0 1.3432 0 3C0 4.19946 0.70874 5.22656 1.72607 5.7066C1.26886 6.71289 1 7.82269 1 9C1 10.1773 1.26886 11.2871 1.72607 12.2934C0.70874 12.7734 0 13.8005 0 15C0 16.6569 1.34314 18 3 18C4.19946 18 5.2265 17.2912 5.7066 16.2739C6.71289 16.7311 7.82269 17 9 17C10.1773 17 11.2871 16.7311 12.2934 16.2739C12.7735 17.2912 13.8005 18 15 18C16.6569 18 18 16.6569 18 15C18 13.8005 17.2913 12.7734 16.2739 12.2934ZM15 1C16.1028 1 17 1.89722 17 3C17 4.10284 16.1028 5 15 5C13.8972 5 13 4.10284 13 3C13 1.89722 13.8972 1 15 1ZM1 3C1 1.89722 1.89722 1 3 1C4.10278 1 5 1.89722 5 3C5 4.10284 4.10278 5 3 5C1.89722 5 1 4.10284 1 3ZM3 17C1.89722 17 1 16.1028 1 15C1 13.8972 1.89722 13 3 13C4.10278 13 5 13.8972 5 15C5 16.1028 4.10278 17 3 17ZM12 15C12 15.0986 12.0198 15.1917 12.0291 15.2878C11.1102 15.7341 10.0884 16 9 16C7.91156 16 6.88983 15.7341 5.97095 15.2878C5.98022 15.1917 6 15.0986 6 15C6 13.3431 4.65686 12 3 12C2.90143 12 2.80835 12.0198 2.71216 12.0291C2.26575 11.1101 2 10.0885 2 9C2 7.9115 2.26581 6.88995 2.71222 5.97101C2.80835 5.98029 2.90143 6 3 6C4.65686 6 6 4.65686 6 3C6 2.90143 5.98022 2.80835 5.97095 2.71222C6.88989 2.26581 7.9115 2 9 2C10.0885 2 11.1101 2.26581 12.0291 2.71222C12.0198 2.80835 12 2.90143 12 3C12 4.65686 13.3431 6 15 6C15.0986 6 15.1917 5.98029 15.2878 5.97101C15.7342 6.88995 16 7.9115 16 9C16 10.0885 15.7343 11.1101 15.2878 12.0291C15.1917 12.0198 15.0986 12 15 12C13.3431 12 12 13.3431 12 15ZM15 17C13.8972 17 13 16.1028 13 15C13 13.8972 13.8972 13 15 13C16.1028 13 17 13.8972 17 15C17 16.1028 16.1028 17 15 17Z" fill="white"/>
</svg>
