<svg width="18" height="18" viewBox="0 0 18 18" fill="none" xmlns="http://www.w3.org/2000/svg">
<path d="M17.9625 0.308594C17.8854 0.121582 17.7027 0 17.5006 0H0.50011C0.297962 0 0.115344 0.121582 0.038196 0.308594C-0.0394407 0.495606 0.00352801 0.710449 0.146594 0.853516L6.97667 7.68359V17.5005C6.97667 17.6851 7.07824 17.8545 7.24083 17.9414C7.31456 17.981 7.39562 18.0005 7.47667 18.0005C7.57384 18.0005 7.67052 17.9722 7.75402 17.9165L10.754 15.9165C10.8932 15.8237 10.9767 15.6675 10.9767 15.5005V7.73096L17.8541 0.853516C17.9972 0.710449 18.0401 0.495606 17.9625 0.308594ZM10.1232 7.17041C10.0294 7.26416 9.97667 7.39111 9.97667 7.52393V15.2329L7.97667 16.5664V7.47656C7.97667 7.34375 7.92394 7.2168 7.83019 7.12305L1.70714 1H16.2936L10.1232 7.17041Z" fill="white"/>
</svg>
