<svg width="18" height="18" viewBox="0 0 18 18" fill="none" xmlns="http://www.w3.org/2000/svg">
<path d="M15 13.5C15 13.7764 14.7764 14 14.5 14H8.5C8.22363 14 8 13.7764 8 13.5C8 13.2236 8.22363 13 8.5 13H14.5C14.7764 13 15 13.2236 15 13.5ZM14.5009 10.0002H11.2498H10.0801L10.08 10H8.5C8.22363 10 8 10.2236 8 10.5C8 10.7764 8.22363 11 8.5 11H14.5C14.7764 11 15 10.7764 15 10.5C15 10.2239 14.7769 10.0007 14.5009 10.0002ZM5.5 4H3.5C3.22363 4 3 4.22363 3 4.5C3 4.77637 3.22363 5 3.5 5H5.5C5.77637 5 6 4.77637 6 4.5C6 4.22363 5.77637 4 5.5 4ZM5.5 10H3.5C3.22363 10 3 10.2236 3 10.5C3 10.7764 3.22363 11 3.5 11H5.5C5.77637 11 6 10.7764 6 10.5C6 10.2236 5.77637 10 5.5 10ZM5.5 13H3.5C3.22363 13 3 13.2236 3 13.5C3 13.7764 3.22363 14 3.5 14H5.5C5.77637 14 6 13.7764 6 13.5C6 13.2236 5.77637 13 5.5 13ZM17.493 8.98071L17 9.85706V15.9258C17 16.5181 16.5181 17 15.9253 17H2.07422C1.48193 17 1 16.5181 1 15.9258V2.07471C1 1.48193 1.48193 1 2.07422 1H8.3927L8.9552 0H2.07422C0.930664 0 0 0.930664 0 2.07471V15.9258C0 17.0693 0.930664 18 2.07422 18H15.9253C17.0693 18 18 17.0693 18 15.9258V8.07935L17.493 8.98071ZM5.5 7H3.5C3.22363 7 3 7.22363 3 7.5C3 7.77637 3.22363 8 3.5 8H5.5C5.77637 8 6 7.77637 6 7.5C6 7.22363 5.77637 7 5.5 7ZM11.2498 8.00018L8.99982 4.00018L11.2498 0.0001831H15.7498L17 2.22272L17.9998 4.00018L17 5.77765L15.7498 8.00018H11.2498ZM10.1472 4.00018L11.8347 7.00018H15.165L16.8525 4.00018L15.165 1.00018H11.8347L10.1472 4.00018ZM13.4998 5.00018C14.0521 5.00018 14.4998 4.55249 14.4998 4.00018C14.4998 3.44788 14.0521 3.00018 13.4998 3.00018C12.9476 3.00018 12.4998 3.44788 12.4998 4.00018C12.4998 4.55249 12.9476 5.00018 13.4998 5.00018Z" fill="white"/>
</svg>
