<svg width="18" height="18" viewBox="0 0 18 18" fill="none" xmlns="http://www.w3.org/2000/svg">
<path d="M18 16.5013C18 16.7774 17.7762 17.0013 17.5 17.0013H15.9998V17.5014C15.9998 17.7775 15.776 18.0014 15.4998 18.0014C15.2237 18.0014 14.9998 17.7775 14.9998 17.5014V17.0013H0.5C0.223877 17.0013 0 16.7774 0 16.5013C0 16.2252 0.223877 16.0013 0.5 16.0013H14.9998V14.5014C14.9998 14.2252 15.2237 14.0014 15.4998 14.0014C15.776 14.0014 15.9998 14.2252 15.9998 14.5014V16.0013H17.5C17.7762 16.0013 18 16.2252 18 16.5013ZM17.5 9.00061H3.00024V7.50067C3.00024 7.22455 2.77637 7.00067 2.50024 7.00067C2.22406 7.00067 2.00024 7.22455 2.00024 7.50067V9.00061H0.5C0.223877 9.00061 0 9.22443 0 9.50061C0 9.77673 0.223877 10.0006 0.5 10.0006H2.00024V10.5007C2.00024 10.7769 2.22406 11.0007 2.50024 11.0007C2.77637 11.0007 3.00024 10.7769 3.00024 10.5007V10.0006H17.5C17.7762 10.0006 18 9.77673 18 9.50061C18 9.22443 17.7762 9.00061 17.5 9.00061ZM0.5 2.99988H8.99921V3.5C8.99921 3.77612 9.22308 4 9.49921 4C9.77539 4 9.99921 3.77612 9.99921 3.5V2.99988H17.5C17.7762 2.99988 18 2.77606 18 2.49988C18 2.22375 17.7762 1.99988 17.5 1.99988H9.99921V0.5C9.99921 0.223877 9.77539 0 9.49921 0C9.22308 0 8.99921 0.223877 8.99921 0.5V1.99988H0.5C0.223877 1.99988 0 2.22375 0 2.49988C0 2.77606 0.223877 2.99988 0.5 2.99988Z" fill="white"/>
</svg>
