<svg width="28" height="16" viewBox="0 0 28 16" fill="none" xmlns="http://www.w3.org/2000/svg">
<rect x="0.5" y="0.5" width="27" height="15" rx="2.5" stroke="#DB563B"/>
<path d="M7.39621 8.55C7.67288 8.55 7.91621 8.51333 8.12621 8.44C8.33954 8.36667 8.51788 8.265 8.66121 8.135C8.80788 8.00167 8.91788 7.84333 8.99121 7.66C9.06454 7.47667 9.10121 7.275 9.10121 7.055C9.10121 6.59833 8.95954 6.24167 8.67621 5.985C8.39621 5.72833 7.96954 5.6 7.39621 5.6H6.24621V8.55H7.39621ZM7.39621 4.835C7.84954 4.835 8.24288 4.88833 8.57621 4.995C8.91288 5.09833 9.19121 5.24667 9.41121 5.44C9.63121 5.63333 9.79454 5.86667 9.90121 6.14C10.0112 6.41333 10.0662 6.71833 10.0662 7.055C10.0662 7.38833 10.0079 7.69333 9.89121 7.97C9.77454 8.24667 9.60288 8.485 9.37621 8.685C9.15288 8.885 8.87454 9.04167 8.54121 9.155C8.21121 9.265 7.82954 9.32 7.39621 9.32H6.24621V12H5.28121V4.835H7.39621ZM17.4971 8.42C17.4971 8.95667 17.4121 9.445 17.2421 9.885C17.0721 10.325 16.8321 10.7017 16.5221 11.015C16.2121 11.3283 15.8387 11.5717 15.4021 11.745C14.9687 11.915 14.4887 12 13.9621 12H11.2871V4.835H13.9621C14.4887 4.835 14.9687 4.92167 15.4021 5.095C15.8387 5.265 16.2121 5.50833 16.5221 5.825C16.8321 6.13833 17.0721 6.515 17.2421 6.955C17.4121 7.395 17.4971 7.88333 17.4971 8.42ZM16.5021 8.42C16.5021 7.98 16.4421 7.58667 16.3221 7.24C16.2021 6.89333 16.0321 6.6 15.8121 6.36C15.5921 6.12 15.3254 5.93667 15.0121 5.81C14.6987 5.68333 14.3487 5.62 13.9621 5.62H12.2571V11.215H13.9621C14.3487 11.215 14.6987 11.1517 15.0121 11.025C15.3254 10.8983 15.5921 10.7167 15.8121 10.48C16.0321 10.24 16.2021 9.94667 16.3221 9.6C16.4421 9.25333 16.5021 8.86 16.5021 8.42ZM19.8645 5.625V8.13H22.8095V8.92H19.8645V12H18.8945V4.835H23.3095V5.625H19.8645Z" fill="#DB563B"/>
</svg>
