<svg xmlns="http://www.w3.org/2000/svg" width="14" height="14" viewBox="0 0 14 14" fill="none">
  <g id="III" clip-path="url(#clip0_2405_1643)">
  <path id="Vector" d="M10.207 5.29297C10.5977 5.68359 10.5977 6.31641 10.207 6.70703C10.0117 6.90234 9.75586 7 9.5 7C9.24414 7 8.98828 6.90234 8.79297 6.70703L7 4.91406L5.20703 6.70703C5.01172 6.90234 4.75586 7 4.5 7C4.24414 7 3.98828 6.90234 3.79297 6.70703C3.40234 6.31641 3.40234 5.68359 3.79297 5.29297L5.58594 3.5L3.79297 1.70703C3.40234 1.31641 3.40234 0.683594 3.79297 0.292969C4.18359 -0.0976561 4.81641 -0.0976561 5.20703 0.292969L7 2.08594L8.79297 0.292969C9.18359 -0.0976562 9.81641 -0.0976562 10.207 0.292969C10.5977 0.683594 10.5977 1.31641 10.207 1.70703L8.41406 3.5L10.207 5.29297Z" fill="#DB563B"/>
  <path id="Vector_2" d="M0 14H14V10H0V14ZM1 11H13V13H1V11ZM14 4.99951V5.99951V8.99951H0V5.99951V4.99951H1H2V5.99951H1V7.99951H13V5.99951H12V4.99951H13H14Z" fill="#83909E"/>
  </g>
  <defs>
  <clipPath id="clip0_2405_1643">
  <rect width="14" height="14" fill="white"/>
  </clipPath>
  </defs>
</svg>
