<svg width="18" height="19" viewBox="0 0 18 19" fill="none" xmlns="http://www.w3.org/2000/svg"><path d="M16.5 0H1.5C0.67157 0 0 0.671631 0 1.5V4.50006C0 5.32843 0.67157 6 1.5 6H16.5C17.3284 6 18 5.32843 18 4.50006V1.5C18 0.671631 17.3284 0 16.5 0ZM17 4.50006C17 4.77576 16.7757 5 16.5 5H1.5C1.2243 5 1 4.77576 1 4.50006V1.5C1 1.2243 1.2243 1 1.5 1H16.5C16.7757 1 17 1.2243 17 1.5V4.50006ZM18 9.50092C18 9.7771 17.7761 10.0009 17.5 10.0009H0.5C0.223877 10.0009 0 9.7771 0 9.50092C0 9.22479 0.223877 9.00092 0.5 9.00092H17.5C17.7761 9.00092 18 9.22479 18 9.50092ZM18 13.5013C18 13.7775 17.7761 14.0013 17.5 14.0013H0.5C0.223877 14.0013 0 13.7775 0 13.5013C0 13.2252 0.223877 13.0013 0.5 13.0013H17.5C17.7761 13.0013 18 13.2252 18 13.5013ZM18 17.5017C18 17.7779 17.7761 18.0017 17.5 18.0017H0.5C0.223877 18.0017 0 17.7779 0 17.5017C0 17.2256 0.223877 17.0017 0.5 17.0017H17.5C17.7761 17.0017 18 17.2256 18 17.5017Z" fill="#B4C3EB"></path></svg>