<svg width="16" height="16" viewBox="0 0 16 16" fill="none" xmlns="http://www.w3.org/2000/svg">
<circle cx="8" cy="8" r="8" fill="#DB563B"/>
<path d="M8.74456 6.844V13H7.25656V6.844H8.74456ZM8.94856 5.05C8.94856 5.178 8.92256 5.298 8.87056 5.41C8.81856 5.522 8.74856 5.62 8.66056 5.704C8.57656 5.788 8.47656 5.856 8.36056 5.908C8.24456 5.956 8.12056 5.98 7.98856 5.98C7.86056 5.98 7.73856 5.956 7.62256 5.908C7.51056 5.856 7.41256 5.788 7.32856 5.704C7.24456 5.62 7.17656 5.522 7.12456 5.41C7.07656 5.298 7.05256 5.178 7.05256 5.05C7.05256 4.918 7.07656 4.794 7.12456 4.678C7.17656 4.562 7.24456 4.462 7.32856 4.378C7.41256 4.294 7.51056 4.228 7.62256 4.18C7.73856 4.128 7.86056 4.102 7.98856 4.102C8.12056 4.102 8.24456 4.128 8.36056 4.18C8.47656 4.228 8.57656 4.294 8.66056 4.378C8.74856 4.462 8.81856 4.562 8.87056 4.678C8.92256 4.794 8.94856 4.918 8.94856 5.05Z" fill="white"/>
</svg>

