<svg width="17" height="14" viewBox="0 0 17 14" fill="none" xmlns="http://www.w3.org/2000/svg">
<path d="M0.000283989 8.84953C-0.0351405 11.6061 2.17901 13.8779 4.93562 13.9134L8.43533 13.9583C8.71168 13.9619 8.93817 13.7412 8.94172 13.4648C8.94527 13.1885 8.72453 12.962 8.44818 12.9584L4.94847 12.9135C2.74309 12.8851 0.971854 11.0683 1.0002 8.86238C1.02852 6.65871 2.84241 4.88994 5.04479 4.9147C5.04705 4.91473 5.04893 4.91604 5.05124 4.91607L14.3434 5.03548L11.1568 8.14127C10.959 8.33406 10.9549 8.65044 11.1477 8.84824C11.2441 8.94715 11.3714 8.99761 11.4993 8.99926C11.6272 9.0009 11.7558 8.95372 11.8547 8.85733L15.9051 4.90966C15.9521 4.864 15.9896 4.80905 16.0159 4.74786C16.0419 4.6871 16.0559 4.62251 16.0568 4.55745C16.0576 4.4924 16.0452 4.42747 16.0208 4.36606C15.9961 4.30421 15.96 4.24832 15.9142 4.20147L11.9666 0.151016C11.7738 -0.0467901 11.4574 -0.0508558 11.2596 0.141931C11.0618 0.334717 11.0577 0.651098 11.2505 0.848904L14.3563 4.03556L5.0738 3.91627C5.07038 3.91617 5.06754 3.91424 5.06412 3.9142C2.30751 3.87877 0.0357084 6.09293 0.000283989 8.84953Z" fill="#83909E"/>
</svg>
