<svg width="14" height="14" viewBox="0 0 14 14" fill="none" xmlns="http://www.w3.org/2000/svg">
<path d="M-0.000976562 -0.000488281H1.99902V1.99951H-0.000976562V-0.000488281ZM3.99945 1.99951H5.99945V-0.000488281H3.99945V1.99951ZM7.99982 1.99951H9.99982V-0.000488281H7.99982V1.99951ZM12.0002 -0.000488281V1.99951H14.0002V-0.000488281H12.0002ZM-0.000976562 5.99994H1.99902V3.99994H-0.000976562V5.99994ZM3.99945 5.99994H5.99945V3.99994H3.99945V5.99994ZM7.99982 5.99994H9.99982V3.99994H7.99982V5.99994ZM12.0002 5.99994H14.0002V3.99994H12.0002V5.99994ZM-0.000976562 10.0003H1.99902V8.00031H-0.000976562V10.0003ZM3.99945 10.0003H5.99945V8.00031H3.99945V10.0003ZM7.99982 10.0003H9.99982V8.00031H7.99982V10.0003ZM12.0002 10.0003H14.0002V8.00031H12.0002V10.0003ZM-0.000976562 14.0007H1.99902V12.0007H-0.000976562V14.0007ZM3.99945 14.0007H5.99945V12.0007H3.99945V14.0007ZM7.99982 14.0007H9.99982V12.0007H7.99982V14.0007ZM12.0002 14.0007H14.0002V12.0007H12.0002V14.0007Z" fill="#2C3640"/>
</svg>
