<svg width="18" height="18" viewBox="0 0 18 18" fill="none" xmlns="http://www.w3.org/2000/svg">
  <path
    d="M0 6.49976V1.5C0 0.67157 0.67157 0 1.5 0H6.49988C7.32831 0 7.99988 0.67157 7.99988 1.5V3H6.99988V1.5C6.99988 1.2243 6.77557 1 6.49988 1H1.5C1.2243 1 1 1.2243 1 1.5V6.49976C1 6.77545 1.2243 6.99976 1.5 6.99976H3.33038L2.76788 7.99976H1.5C0.67157 7.99976 0 7.32812 0 6.49976ZM6.99988 16.5C6.99988 16.7757 6.77557 17 6.49988 17H1.5C1.2243 17 1 16.7757 1 16.5V11.4998C1 11.2241 1.2243 10.9998 1.5 10.9998H3.33014L2.76764 9.99982H1.5C0.67157 9.99982 0 10.6714 0 11.4998V16.5C0 17.3284 0.67157 18 1.5 18H6.49988C7.32831 18 7.99988 17.3284 7.99988 16.5V15H6.99988V16.5ZM16.4999 0H11.5C10.6716 0 10 0.67157 10 1.5V3H11V1.5C11 1.2243 11.2243 1 11.5 1H16.4999C16.7756 1 16.9999 1.2243 16.9999 1.5V6.50012C16.9999 6.77582 16.7756 7.00012 16.4999 7.00012H14.6697L15.2322 8.00012H16.4999C17.3283 8.00012 17.9999 7.32855 17.9999 6.50012V1.5C17.9999 0.67157 17.3283 0 16.4999 0ZM16.4999 10.0002H15.232L14.6695 11.0002H16.4999C16.7756 11.0002 16.9999 11.2245 16.9999 11.5002V16.5C16.9999 16.7757 16.7756 17 16.4999 17H11.5C11.2243 17 11 16.7757 11 16.5V15H10V16.5C10 17.3284 10.6716 18 11.5 18H16.4999C17.3283 18 17.9999 17.3284 17.9999 16.5V11.5002C17.9999 10.6718 17.3283 10.0002 16.4999 10.0002ZM6.74994 5H11.2499L13.4999 9L11.2499 13H6.74994L4.49994 9L6.74994 5ZM7.33478 6L5.64728 9L7.33478 12H10.6651L12.3526 9L10.6651 6H7.33478ZM8.99994 10C9.55225 10 9.99994 9.55231 9.99994 9C9.99994 8.44775 9.55225 8 8.99994 8C8.44763 8 7.99994 8.44775 7.99994 9C7.99994 9.55231 8.44763 10 8.99994 10Z"
    fill="#B4C3EB">
  </path>
</svg>