<svg width="2" height="9" viewBox="0 0 2 9" fill="none" xmlns="http://www.w3.org/2000/svg">
  <path d="M1.74456 2.844V9H0.256563V2.844H1.74456ZM1.94856 1.05C1.94856 1.178 1.92256 1.298 1.87056 1.41C1.81856 1.522 1.74856 1.62 1.66056 1.704C1.57656 1.788 1.47656 1.856 1.36056 1.908C1.24456 1.956 1.12056 1.98 0.988563 1.98C0.860563 1.98 0.738563 1.956 0.622563 1.908C0.510563 1.856 0.412563 1.788 0.328563 1.704C0.244563 1.62 0.176563 1.522 0.124563 1.41C0.0765625 1.298 0.0525625 1.178 0.0525625 1.05C0.0525625 0.918 0.0765625 0.794 0.124563 0.677999C0.176563 0.562 0.244563 0.462 0.328563 0.378C0.412563 0.294 0.510563 0.228 0.622563 0.18C0.738563 0.128 0.860563 0.102 0.988563 0.102C1.12056 0.102 1.24456 0.128 1.36056 0.18C1.47656 0.228 1.57656 0.294 1.66056 0.378C1.74856 0.462 1.81856 0.562 1.87056 0.677999C1.92256 0.794 1.94856 0.918 1.94856 1.05Z" fill="white"/>
</svg>
