<svg width="16" height="14" viewBox="0 0 16 14" fill="none" xmlns="http://www.w3.org/2000/svg">
<path d="M16 8.99805C16 11.7549 13.7568 13.998 11 13.998H7.5C7.22363 13.998 7 13.7744 7 13.498C7 13.2217 7.22363 12.998 7.5 12.998H11C13.2056 12.998 15 11.2041 15 8.99805C15 6.79419 13.209 5.00226 11.0065 4.99872C11.0042 4.99872 11.0023 5 11 5H1.70703L4.85352 8.14648C5.04883 8.3418 5.04883 8.6582 4.85352 8.85352C4.75586 8.95117 4.62793 9 4.5 9C4.37207 9 4.24414 8.95117 4.14648 8.85352L0.147095 4.85413C0.100708 4.80786 0.0639038 4.75244 0.0384521 4.69092C0.0131836 4.62982 0 4.56506 0 4.5C0 4.43494 0.0131836 4.37018 0.0384521 4.30908C0.0639038 4.24756 0.100708 4.19214 0.147095 4.14587L4.14648 0.146484C4.3418 -0.0488281 4.6582 -0.0488281 4.85352 0.146484C5.04883 0.341797 5.04883 0.658203 4.85352 0.853516L1.70703 4H10.9903C10.9937 3.99994 10.9966 3.99805 11 3.99805C13.7568 3.99805 16 6.24121 16 8.99805Z" fill="#DB563B"/>
</svg>
