<svg width="21" height="8" viewBox="0 0 21 8" fill="none" xmlns="http://www.w3.org/2000/svg">
<path d="M2.73583 4.205C3.04017 4.205 3.30783 4.16467 3.53883 4.084C3.7735 4.00333 3.96967 3.8915 4.12733 3.7485C4.28867 3.60183 4.40967 3.42767 4.49033 3.226C4.571 3.02433 4.61133 2.8025 4.61133 2.5605C4.61133 2.05817 4.4555 1.66583 4.14383 1.3835C3.83583 1.10117 3.3665 0.96 2.73583 0.96H1.47083V4.205H2.73583ZM2.73583 0.1185C3.2345 0.1185 3.66717 0.177166 4.03383 0.2945C4.40417 0.408166 4.71033 0.571333 4.95233 0.784C5.19433 0.996666 5.374 1.25333 5.49133 1.554C5.61233 1.85467 5.67283 2.19017 5.67283 2.5605C5.67283 2.92717 5.60867 3.26267 5.48033 3.567C5.352 3.87133 5.16317 4.1335 4.91383 4.3535C4.66817 4.5735 4.362 4.74583 3.99533 4.8705C3.63233 4.9915 3.2125 5.052 2.73583 5.052H1.47083V8H0.409332V0.1185H2.73583ZM13.8468 4.062C13.8468 4.65233 13.7533 5.1895 13.5663 5.6735C13.3793 6.1575 13.1153 6.57183 12.7743 6.9165C12.4333 7.26117 12.0226 7.52883 11.5423 7.7195C11.0656 7.9065 10.5376 8 9.95828 8H7.01578V0.1185H9.95828C10.5376 0.1185 11.0656 0.213833 11.5423 0.4045C12.0226 0.5915 12.4333 0.859166 12.7743 1.2075C13.1153 1.55217 13.3793 1.9665 13.5663 2.4505C13.7533 2.9345 13.8468 3.47167 13.8468 4.062ZM12.7523 4.062C12.7523 3.578 12.6863 3.14533 12.5543 2.764C12.4223 2.38267 12.2353 2.06 11.9933 1.796C11.7513 1.532 11.4579 1.33033 11.1133 1.191C10.7686 1.05167 10.3836 0.982 9.95828 0.982H8.08278V7.1365H9.95828C10.3836 7.1365 10.7686 7.06683 11.1133 6.9275C11.4579 6.78817 11.7513 6.58833 11.9933 6.328C12.2353 6.064 12.4223 5.74133 12.5543 5.36C12.6863 4.97867 12.7523 4.546 12.7523 4.062ZM16.4509 0.987499V3.743H19.6904V4.612H16.4509V8H15.3839V0.1185H20.2404V0.987499H16.4509Z" fill="#DB563B"/>
</svg>
