<svg width="21" height="8" viewBox="0 0 21 8" fill="none" xmlns="http://www.w3.org/2000/svg">
<path d="M6.7652 1.015H4.2132V8H3.1517V1.015H0.594199V0.1185H6.7652V1.015ZM13.9462 8H12.8902C12.8096 8 12.7454 7.97983 12.6977 7.9395C12.6537 7.8955 12.6171 7.84783 12.5877 7.7965L10.4757 4.4855C10.4464 4.5735 10.4134 4.64867 10.3767 4.711L8.31972 7.7965C8.28306 7.84783 8.24272 7.8955 8.19872 7.9395C8.15839 7.97983 8.10156 8 8.02822 8H7.03822L9.74972 3.952L7.14822 0.1185H8.20972C8.28672 0.1185 8.34356 0.131333 8.38022 0.156999C8.41689 0.182666 8.44989 0.219333 8.47922 0.267L10.5362 3.424C10.5619 3.347 10.6004 3.26267 10.6517 3.171L12.5932 0.289C12.6226 0.237667 12.6574 0.197333 12.6977 0.168C12.7381 0.135 12.7857 0.1185 12.8407 0.1185H13.8582L11.2457 3.9025L13.9462 8ZM20.4078 1.015H17.8558V8H16.7943V1.015H14.2368V0.1185H20.4078V1.015Z" fill="#DB563B"/>
</svg>
